<svg width="280" height="311" viewBox="0 0 280 311" fill="none" xmlns="http://www.w3.org/2000/svg">
<g opacity="0.2" clip-path="url(#clip0_1860_60965)">
<path fill-rule="evenodd" clip-rule="evenodd" d="M109.878 120.625L109.897 120.63V120.605L109.878 120.625ZM109.878 120.625L87.5625 114.627L81.5934 92.1641L6.35723 167.833C-1.45241 175.687 -1.45241 188.445 6.35723 196.299C14.1669 204.154 26.8513 204.154 34.6609 196.299L109.878 120.625ZM104.971 199.6C98.6789 193.296 95.6943 185.417 96.6892 179.463L166.876 108.873C174.686 101.018 187.371 101.018 195.18 108.873C202.99 116.727 202.99 129.485 195.18 137.339L124.993 207.93C119.074 208.93 111.239 205.904 104.971 199.6ZM228.36 206.454L228.34 206.448L228.36 206.429V206.454ZM228.34 206.448L153.124 282.122C145.314 289.977 132.63 289.977 124.82 282.122C117.01 274.268 117.01 261.51 124.82 253.656L200.056 177.987L206.025 200.45L228.34 206.448ZM223.411 285.425C217.118 279.122 214.133 271.242 215.128 265.289L285.316 194.698C293.125 186.843 305.81 186.843 313.619 194.698C321.429 202.553 321.429 215.31 313.619 223.164L243.432 293.755C237.513 294.756 229.678 291.729 223.411 285.425Z" fill="#00A8B7"/>
<path fill-rule="evenodd" clip-rule="evenodd" d="M102.658 99.4446L96.6886 76.9816L166.876 6.3909C174.686 -1.46363 187.37 -1.46363 195.18 6.3909C202.989 14.2454 202.989 27.0028 195.18 34.8573L124.992 105.448L102.658 99.4446ZM89.8756 214.786C96.1432 221.115 103.978 224.117 109.897 223.116L34.6609 298.785C26.8513 306.639 14.1669 306.639 6.35723 298.785C-1.45241 290.93 -1.45241 278.173 6.35723 270.319L81.5934 194.65C80.5985 200.603 83.608 208.483 89.8756 214.786ZM215.151 162.807L221.121 185.27L243.455 191.273L313.642 120.683C321.452 112.828 321.452 100.071 313.642 92.2163C305.833 84.3617 293.148 84.3617 285.339 92.2163L215.151 162.807ZM208.315 300.609C214.582 306.938 222.417 309.94 228.336 308.939L153.1 384.608C145.29 392.462 132.606 392.462 124.796 384.608C116.987 376.753 116.987 363.996 124.796 356.141L200.033 280.473C199.038 286.426 202.047 294.306 208.315 300.609Z" fill="#00A8B7"/>
</g>
<defs>
<clipPath id="clip0_1860_60965">
<rect width="319" height="390" fill="white" transform="translate(0.5 0.5)"/>
</clipPath>
</defs>
</svg>
