<svg width="545" height="791" viewBox="0 0 545 791" fill="none" xmlns="http://www.w3.org/2000/svg">
<g opacity="0.2">
<path fill-rule="evenodd" clip-rule="evenodd" d="M120.498 244.242L120.538 244.253V244.202L120.498 244.242ZM120.498 244.242L75.3085 232.092L63.2205 186.59L-89.1387 339.867C-104.954 355.778 -104.954 381.62 -89.1387 397.53C-73.3235 413.441 -47.6365 413.441 -31.8214 397.53L120.498 244.242ZM110.563 404.216C97.82 391.448 91.776 375.486 93.7906 363.427L235.925 220.435C251.74 204.525 277.427 204.525 293.243 220.435C309.058 236.346 309.058 262.188 293.243 278.098L151.108 421.09C139.121 423.116 123.255 416.985 110.563 404.216ZM360.434 418.1L360.395 418.089L360.434 418.049V418.1ZM360.395 418.089L208.075 571.377C192.26 587.288 166.573 587.288 150.758 571.377C134.943 555.467 134.943 529.625 150.758 513.714L303.117 360.437L315.205 405.939L360.395 418.089ZM350.411 578.068C337.669 565.299 331.625 549.338 333.639 537.278L475.774 394.287C491.589 378.376 517.276 378.376 533.091 394.287C548.906 410.197 548.906 436.039 533.091 451.95L390.956 594.941C378.969 596.968 363.104 590.837 350.411 578.068Z" fill="black"/>
<path fill-rule="evenodd" clip-rule="evenodd" d="M105.878 201.338L93.7895 155.836L235.924 12.845C251.739 -3.06551 277.426 -3.06551 293.241 12.845C309.057 28.7554 309.057 54.5972 293.241 70.5077L151.107 213.499L105.878 201.338ZM79.9926 434.98C92.685 447.799 108.551 453.88 120.538 451.853L-31.8214 605.13C-47.6365 621.041 -73.3235 621.041 -89.1387 605.13C-104.954 589.22 -104.954 563.378 -89.1387 547.468L63.2205 394.19C61.2058 406.25 67.3002 422.211 79.9926 434.98ZM333.686 329.688L345.774 375.19L391.003 387.35L533.138 244.359C548.953 228.449 548.953 202.607 533.138 186.696C517.323 170.786 491.636 170.786 475.821 186.696L333.686 329.688ZM319.841 608.826C332.534 621.646 348.399 627.726 360.386 625.699L208.027 778.977C192.212 794.887 166.525 794.887 150.71 778.977C134.895 763.066 134.895 737.224 150.71 721.314L303.069 568.036C301.054 580.096 307.149 596.057 319.841 608.826Z" fill="black"/>
</g>
</svg>
